<svg xmlns="http://www.w3.org/2000/svg" xmlns:xlink="http://www.w3.org/1999/xlink" width="160" zoomAndPan="magnify" viewBox="0 0 120 30.000001" height="40" preserveAspectRatio="xMidYMid meet" version="1.0"><defs><g/><clipPath id="1a3bfae690"><path d="M 1.933594 0 L 118.0625 0 L 118.0625 29.03125 L 1.933594 29.03125 Z M 1.933594 0 " clip-rule="nonzero"/></clipPath><clipPath id="6f7370e608"><path d="M 11.367188 5.539062 L 21.53125 5.539062 L 21.53125 22.960938 L 11.367188 22.960938 Z M 11.367188 5.539062 " clip-rule="nonzero"/></clipPath></defs><g clip-path="url(#1a3bfae690)"><path fill="#ffffff" d="M 1.933594 0 L 118.066406 0 L 118.066406 29.03125 L 1.933594 29.03125 Z M 1.933594 0 " fill-opacity="1" fill-rule="nonzero"/><path fill="#ffffff" d="M 1.933594 0 L 118.066406 0 L 118.066406 29.03125 L 1.933594 29.03125 Z M 1.933594 0 " fill-opacity="1" fill-rule="nonzero"/></g><g clip-path="url(#6f7370e608)"><path fill="#253f0b" d="M 16.027344 5.539062 L 16.019531 5.648438 C 16.019531 5.710938 16.011719 5.890625 16.007812 6.054688 L 16.003906 6.347656 L 15.839844 6.175781 C 15.65625 5.976562 15.628906 5.96875 15.628906 6.105469 C 15.632812 6.164062 15.707031 6.292969 15.800781 6.398438 C 15.945312 6.5625 15.96875 6.617188 15.976562 6.839844 C 15.984375 7.007812 15.96875 7.082031 15.9375 7.0625 C 15.914062 7.046875 15.894531 7.003906 15.894531 6.96875 C 15.894531 6.933594 15.875 6.902344 15.851562 6.902344 C 15.824219 6.902344 15.804688 6.824219 15.804688 6.730469 C 15.804688 6.53125 15.695312 6.390625 15.625 6.503906 C 15.605469 6.539062 15.59375 6.589844 15.605469 6.621094 C 15.628906 6.683594 15.503906 6.644531 15.417969 6.558594 C 15.386719 6.523438 15.335938 6.5 15.304688 6.5 C 15.183594 6.5 15.203125 6.625 15.347656 6.796875 C 15.519531 6.996094 15.527344 7.035156 15.414062 7.066406 C 15.359375 7.082031 15.339844 7.117188 15.355469 7.175781 C 15.378906 7.273438 15.496094 7.289062 15.578125 7.207031 C 15.636719 7.148438 15.636719 7.148438 15.648438 7.320312 C 15.65625 7.460938 15.648438 7.460938 15.5 7.375 C 15.351562 7.289062 15.324219 7.289062 15.324219 7.394531 C 15.324219 7.441406 15.386719 7.53125 15.464844 7.59375 C 15.574219 7.679688 15.585938 7.703125 15.515625 7.683594 C 15.453125 7.667969 15.414062 7.683594 15.394531 7.730469 C 15.359375 7.828125 15.328125 7.820312 15.035156 7.625 C 14.890625 7.53125 14.753906 7.460938 14.726562 7.472656 C 14.636719 7.507812 14.691406 7.679688 14.820312 7.75 L 14.949219 7.820312 L 14.832031 7.835938 C 14.769531 7.84375 14.703125 7.878906 14.691406 7.910156 C 14.667969 7.976562 14.777344 8.042969 14.84375 8 C 14.863281 7.984375 14.882812 7.996094 14.882812 8.023438 C 14.882812 8.046875 14.917969 8.070312 14.960938 8.074219 C 15.015625 8.074219 15.019531 8.082031 14.976562 8.101562 C 14.929688 8.121094 14.9375 8.144531 15.015625 8.203125 L 15.117188 8.28125 L 14.933594 8.316406 C 14.746094 8.347656 14.703125 8.421875 14.816406 8.515625 C 14.859375 8.550781 14.902344 8.554688 14.953125 8.527344 C 15.035156 8.480469 15.191406 8.507812 15.191406 8.566406 C 15.191406 8.589844 15.230469 8.609375 15.28125 8.609375 C 15.328125 8.609375 15.367188 8.589844 15.367188 8.5625 C 15.367188 8.539062 15.410156 8.519531 15.464844 8.519531 L 15.566406 8.523438 L 15.457031 8.613281 C 15.371094 8.683594 15.363281 8.710938 15.410156 8.742188 C 15.472656 8.785156 15.589844 8.753906 15.644531 8.679688 C 15.664062 8.652344 15.671875 8.683594 15.65625 8.753906 C 15.632812 8.855469 15.644531 8.878906 15.71875 8.878906 C 15.765625 8.878906 15.808594 8.851562 15.808594 8.820312 C 15.8125 8.785156 15.820312 8.785156 15.835938 8.828125 C 15.855469 8.875 15.875 8.863281 15.917969 8.785156 L 15.972656 8.675781 L 16.027344 8.800781 C 16.058594 8.867188 16.070312 8.9375 16.050781 8.953125 C 16.035156 8.972656 15.875 8.996094 15.703125 9.003906 C 15.410156 9.019531 15.367188 9.011719 15.171875 8.882812 C 14.980469 8.761719 14.839844 8.738281 14.839844 8.835938 C 14.839844 8.855469 14.894531 8.90625 14.960938 8.945312 L 15.082031 9.015625 L 14.929688 8.984375 C 14.777344 8.957031 14.519531 8.824219 14.410156 8.710938 C 14.375 8.679688 14.3125 8.652344 14.265625 8.652344 C 14.175781 8.652344 14.152344 8.738281 14.222656 8.8125 C 14.25 8.839844 14.183594 8.859375 14.039062 8.871094 C 13.914062 8.878906 13.796875 8.894531 13.777344 8.90625 C 13.632812 8.996094 13.988281 9.164062 14.246094 9.125 L 14.421875 9.097656 L 14.300781 9.171875 C 14.226562 9.214844 14.179688 9.273438 14.191406 9.316406 C 14.210938 9.425781 14.402344 9.390625 14.523438 9.253906 C 14.578125 9.191406 14.65625 9.148438 14.699219 9.15625 C 14.757812 9.171875 14.75 9.1875 14.65625 9.226562 C 14.507812 9.289062 14.464844 9.363281 14.554688 9.398438 C 14.59375 9.414062 14.613281 9.453125 14.601562 9.484375 C 14.589844 9.515625 14.609375 9.554688 14.644531 9.566406 C 14.679688 9.582031 14.707031 9.574219 14.707031 9.554688 C 14.707031 9.515625 14.851562 9.453125 14.957031 9.441406 C 14.984375 9.441406 15.050781 9.398438 15.101562 9.351562 C 15.148438 9.304688 15.191406 9.28125 15.191406 9.300781 C 15.191406 9.347656 15.097656 9.4375 14.980469 9.5 C 14.929688 9.53125 14.882812 9.574219 14.882812 9.597656 C 14.882812 9.683594 15.019531 9.695312 15.101562 9.621094 C 15.183594 9.546875 15.183594 9.546875 15.160156 9.636719 C 15.128906 9.765625 15.21875 9.753906 15.308594 9.617188 C 15.363281 9.527344 15.390625 9.515625 15.417969 9.558594 C 15.449219 9.609375 15.460938 9.605469 15.492188 9.558594 C 15.511719 9.523438 15.566406 9.503906 15.613281 9.507812 C 15.789062 9.53125 16.023438 9.371094 16.03125 9.21875 C 16.035156 9.136719 16.039062 9.140625 16.066406 9.238281 C 16.089844 9.328125 16.070312 9.375 15.941406 9.492188 C 15.855469 9.574219 15.660156 9.703125 15.511719 9.785156 L 15.242188 9.929688 L 15.03125 9.820312 C 14.914062 9.761719 14.792969 9.710938 14.765625 9.703125 C 14.683594 9.6875 14.695312 9.773438 14.785156 9.882812 C 14.855469 9.964844 14.855469 9.96875 14.785156 9.914062 C 14.746094 9.882812 14.695312 9.867188 14.675781 9.878906 C 14.652344 9.894531 14.582031 9.875 14.515625 9.839844 C 14.351562 9.753906 14.300781 9.757812 14.332031 9.855469 C 14.351562 9.917969 14.332031 9.929688 14.226562 9.929688 C 14.152344 9.925781 14.082031 9.914062 14.070312 9.898438 C 14.015625 9.84375 13.875 9.925781 13.875 10.007812 C 13.875 10.078125 13.894531 10.09375 13.964844 10.074219 C 14.054688 10.050781 14.054688 10.054688 13.980469 10.136719 C 13.902344 10.226562 13.914062 10.238281 14.082031 10.226562 C 14.160156 10.21875 14.175781 10.234375 14.152344 10.292969 C 14.128906 10.355469 14.144531 10.367188 14.234375 10.351562 C 14.324219 10.332031 14.339844 10.34375 14.324219 10.410156 C 14.300781 10.503906 14.328125 10.511719 14.4375 10.453125 C 14.542969 10.394531 14.679688 10.578125 14.59375 10.664062 C 14.542969 10.710938 14.527344 10.710938 14.507812 10.660156 C 14.496094 10.625 14.417969 10.59375 14.332031 10.589844 C 14.246094 10.589844 14.1875 10.601562 14.203125 10.625 C 14.214844 10.648438 14.1875 10.652344 14.136719 10.640625 C 14.027344 10.609375 14.023438 10.679688 14.132812 10.75 C 14.191406 10.785156 14.207031 10.835938 14.191406 10.914062 C 14.167969 11.058594 14.160156 11.058594 14 10.917969 C 13.925781 10.859375 13.839844 10.808594 13.804688 10.808594 C 13.730469 10.808594 13.726562 10.828125 13.785156 10.9375 C 13.832031 11.027344 13.800781 11.027344 13.46875 10.960938 C 13.359375 10.941406 13.304688 10.949219 13.304688 10.980469 C 13.304688 11.039062 13.53125 11.167969 13.636719 11.167969 C 13.695312 11.167969 13.699219 11.175781 13.65625 11.230469 C 13.613281 11.285156 13.613281 11.304688 13.664062 11.324219 C 13.699219 11.339844 13.746094 11.34375 13.769531 11.339844 C 13.859375 11.324219 13.917969 11.347656 13.90625 11.402344 C 13.902344 11.4375 13.945312 11.457031 14.015625 11.453125 C 14.109375 11.453125 14.136719 11.472656 14.140625 11.542969 C 14.140625 11.632812 14.144531 11.632812 14.226562 11.53125 C 14.296875 11.445312 14.3125 11.441406 14.3125 11.5 C 14.3125 11.542969 14.332031 11.5625 14.359375 11.546875 C 14.382812 11.53125 14.421875 11.570312 14.445312 11.636719 C 14.46875 11.699219 14.515625 11.761719 14.554688 11.777344 C 14.589844 11.792969 14.621094 11.832031 14.621094 11.867188 C 14.621094 11.898438 14.652344 11.929688 14.691406 11.929688 C 14.730469 11.929688 14.789062 11.964844 14.820312 12.007812 C 14.871094 12.078125 14.882812 12.078125 14.980469 11.996094 L 15.082031 11.90625 L 15.003906 12 C 14.957031 12.058594 14.808594 12.125 14.625 12.167969 C 14.238281 12.265625 14.144531 12.261719 13.988281 12.15625 C 13.839844 12.054688 13.769531 12.074219 13.808594 12.199219 C 13.832031 12.273438 13.8125 12.289062 13.710938 12.289062 C 13.640625 12.289062 13.5625 12.269531 13.539062 12.242188 C 13.511719 12.214844 13.46875 12.21875 13.410156 12.261719 C 13.328125 12.320312 13.332031 12.328125 13.46875 12.40625 C 13.570312 12.46875 13.601562 12.511719 13.585938 12.570312 C 13.566406 12.625 13.582031 12.648438 13.617188 12.644531 C 13.746094 12.625 13.792969 12.648438 13.769531 12.710938 C 13.730469 12.824219 13.890625 12.878906 14.011719 12.792969 C 14.089844 12.738281 14.101562 12.734375 14.0625 12.785156 C 13.988281 12.878906 14.058594 12.976562 14.175781 12.941406 C 14.339844 12.886719 14.386719 12.972656 14.222656 13.03125 C 14.015625 13.109375 13.804688 13.109375 13.726562 13.027344 C 13.640625 12.941406 13.503906 12.9375 13.539062 13.027344 C 13.558594 13.082031 13.527344 13.089844 13.367188 13.066406 C 13.132812 13.03125 13.101562 13.109375 13.320312 13.1875 C 13.425781 13.226562 13.460938 13.265625 13.449219 13.320312 C 13.425781 13.410156 13.5625 13.460938 13.671875 13.402344 C 13.730469 13.367188 13.742188 13.382812 13.742188 13.46875 C 13.742188 13.5625 13.757812 13.578125 13.835938 13.554688 C 13.914062 13.535156 13.925781 13.542969 13.902344 13.609375 C 13.878906 13.671875 13.890625 13.683594 13.960938 13.667969 C 14.011719 13.652344 14.050781 13.660156 14.050781 13.683594 C 14.050781 13.761719 14.144531 13.722656 14.261719 13.59375 C 14.402344 13.441406 14.484375 13.40625 14.589844 13.460938 C 14.707031 13.523438 14.679688 13.574219 14.535156 13.554688 C 14.382812 13.53125 14.359375 13.601562 14.46875 13.757812 C 14.53125 13.851562 14.53125 13.859375 14.449219 13.859375 C 14.402344 13.859375 14.332031 13.890625 14.296875 13.925781 C 14.261719 13.960938 14.203125 13.992188 14.164062 13.992188 C 14.128906 13.992188 14.085938 14.011719 14.074219 14.035156 C 14.058594 14.058594 13.972656 14.074219 13.878906 14.074219 C 13.785156 14.074219 13.679688 14.089844 13.648438 14.109375 C 13.617188 14.128906 13.527344 14.140625 13.449219 14.132812 C 13.335938 14.125 13.308594 14.144531 13.296875 14.226562 C 13.285156 14.300781 13.25 14.332031 13.171875 14.332031 C 13.113281 14.335938 13.042969 14.34375 13.019531 14.351562 C 12.996094 14.355469 12.941406 14.359375 12.898438 14.351562 C 12.855469 14.347656 12.820312 14.363281 12.820312 14.382812 C 12.820312 14.445312 13.0625 14.578125 13.175781 14.578125 C 13.269531 14.578125 13.273438 14.578125 13.195312 14.667969 C 13.117188 14.753906 13.117188 14.757812 13.230469 14.757812 C 13.316406 14.757812 13.339844 14.773438 13.320312 14.824219 C 13.296875 14.882812 13.316406 14.890625 13.417969 14.863281 C 13.488281 14.847656 13.554688 14.835938 13.566406 14.835938 C 13.703125 14.835938 13.738281 14.851562 13.714844 14.90625 C 13.671875 15.03125 13.785156 15.027344 13.847656 14.902344 C 13.910156 14.785156 13.914062 14.785156 13.914062 14.878906 C 13.917969 14.933594 13.933594 14.980469 13.953125 14.984375 C 14.21875 15.023438 14.265625 15.011719 14.316406 14.878906 L 14.371094 14.742188 L 14.410156 14.851562 L 14.449219 14.957031 L 14.535156 14.84375 C 14.617188 14.734375 14.617188 14.734375 14.621094 14.835938 C 14.621094 14.96875 14.699219 14.960938 14.734375 14.824219 C 14.75 14.761719 14.78125 14.710938 14.804688 14.710938 C 14.828125 14.710938 14.832031 14.734375 14.8125 14.761719 C 14.792969 14.792969 14.828125 14.800781 14.925781 14.777344 C 15.03125 14.753906 15.066406 14.761719 15.050781 14.800781 C 15.023438 14.886719 14.75 15.023438 14.613281 15.023438 C 14.550781 15.023438 14.488281 15.050781 14.476562 15.082031 C 14.464844 15.117188 14.378906 15.136719 14.253906 15.132812 C 14.140625 15.132812 14.050781 15.144531 14.050781 15.164062 C 14.050781 15.25 14.203125 15.34375 14.324219 15.332031 C 14.394531 15.324219 14.457031 15.335938 14.460938 15.359375 C 14.472656 15.433594 14.214844 15.472656 13.589844 15.5 C 12.886719 15.527344 12.601562 15.558594 12.601562 15.605469 C 12.601562 15.625 12.550781 15.632812 12.492188 15.621094 C 12.429688 15.609375 12.382812 15.617188 12.382812 15.644531 C 12.382812 15.710938 12.527344 15.789062 12.640625 15.789062 C 12.691406 15.789062 12.734375 15.808594 12.734375 15.832031 C 12.734375 15.859375 12.710938 15.878906 12.6875 15.878906 C 12.660156 15.878906 12.597656 15.917969 12.542969 15.972656 L 12.449219 16.066406 L 12.589844 16.046875 C 12.683594 16.035156 12.734375 16.046875 12.734375 16.082031 C 12.734375 16.117188 12.769531 16.128906 12.820312 16.113281 C 12.871094 16.101562 12.910156 16.113281 12.910156 16.140625 C 12.910156 16.214844 13.019531 16.203125 13.085938 16.125 C 13.113281 16.085938 13.160156 16.058594 13.183594 16.058594 C 13.207031 16.058594 13.199219 16.09375 13.15625 16.136719 C 13.117188 16.183594 13.085938 16.234375 13.085938 16.25 C 13.085938 16.296875 13.253906 16.285156 13.28125 16.238281 C 13.324219 16.164062 13.382812 16.183594 13.414062 16.28125 C 13.449219 16.394531 13.5 16.394531 13.65625 16.277344 L 13.785156 16.1875 L 13.757812 16.324219 C 13.726562 16.492188 13.804688 16.507812 13.984375 16.363281 C 14.101562 16.269531 14.105469 16.269531 14.058594 16.355469 C 14.003906 16.460938 14.027344 16.511719 14.121094 16.476562 C 14.15625 16.460938 14.210938 16.476562 14.246094 16.507812 C 14.292969 16.542969 14.3125 16.546875 14.3125 16.511719 C 14.3125 16.484375 14.34375 16.460938 14.378906 16.460938 C 14.414062 16.460938 14.445312 16.488281 14.445312 16.523438 C 14.445312 16.566406 14.484375 16.585938 14.566406 16.574219 C 15.023438 16.523438 14.433594 16.792969 13.902344 16.878906 C 13.554688 16.9375 13.519531 16.933594 13.40625 16.859375 C 13.335938 16.8125 13.257812 16.773438 13.226562 16.773438 C 13.136719 16.773438 13.164062 16.863281 13.269531 16.910156 C 13.34375 16.941406 13.316406 16.945312 13.171875 16.921875 C 13.0625 16.90625 12.925781 16.894531 12.867188 16.898438 C 12.804688 16.902344 12.65625 16.875 12.539062 16.839844 C 12.421875 16.804688 12.316406 16.78125 12.308594 16.789062 C 12.261719 16.835938 12.542969 17.019531 12.699219 17.046875 L 12.886719 17.078125 L 12.722656 17.082031 C 12.609375 17.085938 12.558594 17.109375 12.558594 17.15625 C 12.558594 17.195312 12.59375 17.226562 12.636719 17.230469 C 12.675781 17.234375 12.730469 17.242188 12.753906 17.246094 C 12.78125 17.253906 12.828125 17.261719 12.863281 17.261719 C 12.910156 17.265625 12.902344 17.285156 12.839844 17.332031 C 12.730469 17.414062 12.785156 17.472656 12.90625 17.40625 C 12.980469 17.363281 12.996094 17.367188 12.996094 17.429688 C 12.996094 17.484375 13.027344 17.496094 13.140625 17.480469 C 13.21875 17.46875 13.320312 17.445312 13.371094 17.429688 C 13.457031 17.394531 13.457031 17.398438 13.371094 17.464844 C 13.285156 17.539062 13.304688 17.554688 13.445312 17.539062 C 13.492188 17.535156 13.523438 17.5625 13.523438 17.601562 C 13.523438 17.699219 13.558594 17.691406 13.664062 17.570312 L 13.753906 17.46875 L 13.679688 17.59375 C 13.644531 17.660156 13.613281 17.734375 13.613281 17.761719 C 13.613281 17.832031 13.828125 17.777344 13.929688 17.683594 C 14.015625 17.605469 14.015625 17.609375 13.984375 17.71875 C 13.9375 17.871094 13.882812 17.902344 13.476562 18.027344 C 13.140625 18.128906 13.121094 18.128906 12.941406 18.058594 C 12.742188 17.984375 12.46875 17.960938 12.46875 18.023438 C 12.46875 18.042969 12.492188 18.082031 12.523438 18.113281 C 12.558594 18.148438 12.5 18.144531 12.34375 18.097656 C 12.214844 18.058594 12.078125 18.035156 12.042969 18.050781 C 11.984375 18.074219 11.988281 18.097656 12.074219 18.1875 L 12.175781 18.296875 L 12.027344 18.253906 C 11.835938 18.199219 11.605469 18.199219 11.570312 18.253906 C 11.535156 18.3125 11.828125 18.433594 12.003906 18.433594 L 12.140625 18.433594 L 12.011719 18.539062 C 11.886719 18.644531 11.886719 18.78125 12.011719 18.730469 C 12.054688 18.714844 12.074219 18.742188 12.074219 18.816406 C 12.074219 18.898438 12.097656 18.929688 12.160156 18.929688 C 12.207031 18.929688 12.273438 18.960938 12.3125 18.996094 C 12.367188 19.054688 12.394531 19.054688 12.46875 19.007812 C 12.515625 18.976562 12.558594 18.9375 12.558594 18.917969 C 12.558594 18.898438 12.59375 18.917969 12.636719 18.960938 C 12.71875 19.046875 12.746094 19.152344 12.679688 19.152344 C 12.65625 19.152344 12.652344 19.175781 12.671875 19.203125 C 12.691406 19.238281 12.660156 19.242188 12.5625 19.222656 C 12.476562 19.203125 12.425781 19.207031 12.425781 19.238281 C 12.425781 19.265625 12.339844 19.289062 12.230469 19.289062 C 12.023438 19.289062 11.984375 19.328125 12.097656 19.421875 C 12.140625 19.460938 12.234375 19.46875 12.371094 19.453125 L 12.578125 19.425781 L 12.417969 19.515625 C 12.304688 19.574219 12.261719 19.625 12.28125 19.671875 C 12.296875 19.714844 12.332031 19.730469 12.378906 19.710938 C 12.417969 19.695312 12.476562 19.675781 12.515625 19.671875 C 12.550781 19.664062 12.554688 19.667969 12.523438 19.679688 C 12.414062 19.71875 12.472656 19.789062 12.589844 19.761719 C 12.675781 19.742188 12.695312 19.746094 12.648438 19.777344 C 12.53125 19.855469 12.632812 19.878906 12.773438 19.804688 C 12.847656 19.765625 12.910156 19.753906 12.910156 19.777344 C 12.910156 19.800781 12.882812 19.828125 12.855469 19.839844 C 12.824219 19.851562 12.816406 19.875 12.832031 19.898438 C 12.851562 19.917969 12.925781 19.914062 12.996094 19.886719 C 13.097656 19.84375 13.117188 19.847656 13.097656 19.898438 C 13.082031 19.945312 13.097656 19.953125 13.15625 19.933594 C 13.222656 19.90625 13.230469 19.914062 13.179688 19.964844 C 13.136719 20.015625 12.984375 20.027344 12.488281 20.019531 C 12.105469 20.011719 11.855469 20.027344 11.855469 20.050781 C 11.855469 20.074219 11.886719 20.09375 11.925781 20.09375 C 11.960938 20.09375 12.019531 20.125 12.054688 20.160156 C 12.109375 20.210938 12.105469 20.226562 12.046875 20.25 C 12.011719 20.261719 11.917969 20.273438 11.839844 20.273438 C 11.679688 20.277344 11.570312 20.335938 11.609375 20.398438 C 11.65625 20.476562 11.875 20.492188 12.054688 20.429688 C 12.292969 20.34375 12.304688 20.347656 12.183594 20.472656 C 12.027344 20.632812 12.039062 20.726562 12.207031 20.679688 C 12.277344 20.65625 12.355469 20.628906 12.382812 20.613281 C 12.40625 20.597656 12.429688 20.621094 12.433594 20.664062 C 12.4375 20.710938 12.441406 20.769531 12.445312 20.796875 C 12.445312 20.828125 12.460938 20.867188 12.480469 20.882812 C 12.511719 20.917969 12.777344 20.765625 12.777344 20.710938 C 12.777344 20.691406 12.796875 20.683594 12.820312 20.699219 C 12.847656 20.71875 12.847656 20.769531 12.820312 20.839844 C 12.796875 20.902344 12.777344 20.972656 12.777344 21 C 12.777344 21.058594 12.984375 20.90625 13.191406 20.691406 C 13.347656 20.53125 13.371094 20.558594 13.226562 20.730469 C 13.191406 20.773438 13.175781 20.84375 13.191406 20.886719 C 13.214844 20.953125 13.230469 20.949219 13.332031 20.851562 L 13.445312 20.746094 L 13.429688 20.859375 C 13.414062 20.960938 13.386719 20.976562 13.0625 21.03125 C 12.835938 21.066406 12.6875 21.074219 12.644531 21.046875 C 12.535156 20.976562 12.292969 20.9375 12.292969 20.984375 C 12.292969 21.011719 12.328125 21.042969 12.371094 21.050781 C 12.414062 21.0625 12.351562 21.0625 12.230469 21.050781 C 12.050781 21.035156 12.019531 21.042969 12.0625 21.089844 C 12.148438 21.175781 12.128906 21.207031 12.007812 21.183594 C 11.867188 21.15625 11.667969 21.207031 11.703125 21.265625 C 11.714844 21.289062 11.773438 21.308594 11.828125 21.308594 C 12.015625 21.308594 11.988281 21.367188 11.761719 21.464844 C 11.371094 21.621094 11.457031 21.742188 11.855469 21.597656 C 12.058594 21.523438 12.140625 21.535156 11.988281 21.617188 C 11.941406 21.644531 11.898438 21.699219 11.898438 21.738281 C 11.898438 21.792969 11.925781 21.804688 12.015625 21.78125 C 12.121094 21.753906 12.128906 21.757812 12.078125 21.820312 C 11.957031 21.964844 12.082031 21.964844 12.28125 21.820312 C 12.371094 21.753906 12.375 21.753906 12.351562 21.851562 C 12.324219 21.945312 12.332031 21.949219 12.398438 21.894531 C 12.464844 21.839844 12.46875 21.84375 12.441406 21.917969 C 12.414062 21.992188 12.425781 21.988281 12.519531 21.902344 C 12.632812 21.796875 12.703125 21.804688 12.660156 21.917969 C 12.625 22.007812 12.730469 21.996094 12.898438 21.890625 C 12.976562 21.839844 13.039062 21.824219 13.039062 21.851562 C 13.039062 21.882812 13.085938 21.890625 13.160156 21.871094 C 13.242188 21.851562 13.261719 21.859375 13.214844 21.886719 C 13.179688 21.90625 13.042969 21.949219 12.910156 21.976562 C 12.625 22.035156 12.535156 22.085938 12.578125 22.160156 C 12.609375 22.207031 12.667969 22.203125 12.929688 22.128906 C 13 22.113281 12.984375 22.140625 12.875 22.25 C 12.796875 22.324219 12.734375 22.398438 12.734375 22.410156 C 12.734375 22.457031 12.976562 22.398438 13.117188 22.324219 C 13.273438 22.238281 13.296875 22.265625 13.191406 22.402344 C 13.105469 22.523438 13.113281 22.578125 13.214844 22.550781 C 13.273438 22.535156 13.304688 22.550781 13.304688 22.589844 C 13.304688 22.675781 13.34375 22.667969 13.445312 22.574219 C 13.527344 22.5 13.53125 22.5 13.515625 22.585938 C 13.492188 22.722656 13.738281 22.683594 13.867188 22.527344 L 13.96875 22.40625 L 13.9375 22.550781 C 13.902344 22.746094 14.011719 22.75 14.183594 22.5625 C 14.25 22.488281 14.3125 22.429688 14.320312 22.429688 C 14.328125 22.429688 14.335938 22.480469 14.339844 22.546875 C 14.351562 22.722656 14.421875 22.769531 14.515625 22.660156 C 14.585938 22.574219 14.597656 22.574219 14.648438 22.644531 C 14.703125 22.714844 14.707031 22.710938 14.734375 22.621094 C 14.75 22.5625 14.785156 22.535156 14.820312 22.546875 C 14.859375 22.5625 14.890625 22.527344 14.910156 22.453125 C 14.929688 22.367188 14.949219 22.347656 14.972656 22.386719 C 14.992188 22.417969 15.050781 22.449219 15.101562 22.457031 C 15.171875 22.46875 15.214844 22.429688 15.289062 22.273438 C 15.382812 22.070312 15.484375 21.992188 15.433594 22.160156 C 15.398438 22.269531 15.425781 22.269531 15.566406 22.175781 C 15.625 22.136719 15.675781 22.0625 15.679688 22.007812 C 15.683594 21.933594 15.6875 21.929688 15.703125 21.992188 C 15.738281 22.121094 15.804688 22.03125 15.808594 21.855469 C 15.808594 21.71875 15.816406 21.703125 15.851562 21.765625 C 15.878906 21.808594 15.9375 21.847656 15.988281 21.847656 C 16.074219 21.847656 16.078125 21.863281 16.050781 22.195312 C 16.03125 22.425781 15.984375 22.613281 15.914062 22.757812 C 15.871094 22.84375 15.835938 22.917969 15.820312 22.960938 L 16.910156 22.960938 C 16.957031 22.921875 16.9375 22.851562 16.886719 22.730469 C 16.808594 22.539062 16.777344 22.148438 16.839844 22.128906 C 16.863281 22.121094 16.917969 22.175781 16.960938 22.25 C 17.042969 22.386719 17.140625 22.4375 17.09375 22.316406 C 17.042969 22.179688 17.125 22.253906 17.183594 22.398438 C 17.230469 22.515625 17.269531 22.550781 17.347656 22.542969 C 17.40625 22.539062 17.480469 22.558594 17.515625 22.582031 C 17.558594 22.617188 17.582031 22.617188 17.59375 22.578125 C 17.605469 22.542969 17.640625 22.554688 17.695312 22.613281 C 17.808594 22.726562 17.867188 22.722656 17.839844 22.597656 C 17.828125 22.539062 17.832031 22.515625 17.855469 22.542969 C 17.90625 22.609375 18.042969 22.660156 18.042969 22.609375 C 18.042969 22.566406 18.285156 22.582031 18.414062 22.632812 C 18.480469 22.660156 18.492188 22.652344 18.472656 22.597656 C 18.457031 22.554688 18.46875 22.515625 18.496094 22.503906 C 18.535156 22.488281 18.535156 22.46875 18.496094 22.425781 C 18.394531 22.316406 18.4375 22.304688 18.601562 22.386719 C 18.78125 22.484375 18.832031 22.46875 18.746094 22.351562 C 18.695312 22.289062 18.695312 22.28125 18.742188 22.324219 C 18.773438 22.351562 18.828125 22.367188 18.859375 22.351562 C 18.894531 22.339844 18.921875 22.347656 18.921875 22.371094 C 18.921875 22.394531 18.949219 22.449219 18.984375 22.496094 C 19.035156 22.570312 19.054688 22.574219 19.117188 22.519531 C 19.179688 22.464844 19.199219 22.472656 19.261719 22.5625 L 19.332031 22.667969 L 19.371094 22.558594 C 19.40625 22.460938 19.414062 22.457031 19.46875 22.53125 C 19.535156 22.625 19.566406 22.628906 19.652344 22.539062 C 19.707031 22.484375 19.710938 22.457031 19.667969 22.40625 C 19.636719 22.367188 19.625 22.339844 19.644531 22.339844 C 19.660156 22.339844 19.648438 22.292969 19.621094 22.238281 C 19.578125 22.152344 19.59375 22.160156 19.71875 22.273438 C 19.992188 22.527344 20.007812 22.535156 20.085938 22.457031 C 20.125 22.417969 20.140625 22.359375 20.125 22.328125 C 20.105469 22.296875 20.128906 22.300781 20.175781 22.339844 C 20.40625 22.53125 20.644531 22.570312 20.484375 22.390625 C 20.414062 22.308594 20.414062 22.304688 20.53125 22.273438 L 20.648438 22.242188 L 20.519531 22.136719 C 20.351562 21.996094 20.441406 21.996094 20.683594 22.136719 C 20.789062 22.199219 20.898438 22.246094 20.929688 22.25 C 21.019531 22.25 20.992188 22.175781 20.886719 22.125 C 20.796875 22.082031 20.804688 22.074219 20.964844 22.074219 C 21.0625 22.070312 21.179688 22.039062 21.226562 22.003906 C 21.308594 21.941406 21.308594 21.9375 21.183594 21.9375 C 20.996094 21.933594 20.328125 21.808594 20.1875 21.75 C 20.015625 21.679688 19.984375 21.570312 20.152344 21.636719 C 20.300781 21.691406 20.375 21.644531 20.265625 21.5625 C 20.203125 21.515625 20.222656 21.511719 20.390625 21.523438 C 20.605469 21.542969 20.652344 21.488281 20.492188 21.402344 C 20.40625 21.359375 20.421875 21.355469 20.605469 21.363281 C 20.859375 21.375 20.929688 21.292969 20.710938 21.238281 L 20.570312 21.199219 L 20.710938 21.183594 C 20.878906 21.164062 20.894531 21.117188 20.753906 21.046875 C 20.675781 21.003906 20.707031 20.996094 20.941406 21.015625 C 21.203125 21.039062 21.21875 21.035156 21.140625 20.972656 C 21.09375 20.933594 21.019531 20.902344 20.980469 20.902344 C 20.9375 20.902344 20.890625 20.882812 20.871094 20.855469 C 20.855469 20.824219 20.882812 20.808594 20.945312 20.8125 C 21.128906 20.828125 21.25 20.816406 21.25 20.773438 C 21.25 20.753906 21.109375 20.722656 20.941406 20.703125 C 20.769531 20.6875 20.640625 20.65625 20.652344 20.636719 C 20.664062 20.617188 20.792969 20.574219 20.933594 20.542969 C 21.203125 20.480469 21.375 20.390625 21.320312 20.335938 C 21.292969 20.304688 21.046875 20.347656 20.722656 20.433594 C 20.621094 20.460938 20.625 20.453125 20.761719 20.332031 C 20.988281 20.132812 20.859375 20.113281 20.535156 20.296875 C 20.207031 20.480469 20.019531 20.496094 19.65625 20.367188 C 19.246094 20.222656 18.578125 19.875 18.527344 19.78125 C 18.464844 19.664062 18.5 19.667969 18.613281 19.789062 C 18.660156 19.84375 18.703125 19.871094 18.703125 19.851562 C 18.703125 19.832031 18.734375 19.839844 18.769531 19.871094 C 18.824219 19.917969 18.835938 19.914062 18.835938 19.847656 C 18.835938 19.777344 18.855469 19.785156 18.972656 19.898438 L 19.109375 20.027344 L 19.082031 19.882812 C 19.058594 19.742188 19.058594 19.738281 19.175781 19.792969 C 19.242188 19.820312 19.324219 19.867188 19.363281 19.894531 C 19.53125 20.027344 19.550781 20.027344 19.519531 19.867188 C 19.496094 19.75 19.5 19.730469 19.542969 19.773438 C 19.621094 19.851562 19.800781 19.839844 19.800781 19.757812 C 19.800781 19.675781 19.871094 19.671875 19.917969 19.753906 C 19.9375 19.785156 20.007812 19.847656 20.074219 19.890625 C 20.175781 19.957031 20.195312 19.960938 20.195312 19.90625 C 20.195312 19.867188 20.15625 19.804688 20.109375 19.757812 C 20.058594 19.714844 20.019531 19.65625 20.019531 19.632812 C 20.019531 19.605469 20.03125 19.597656 20.046875 19.613281 C 20.0625 19.628906 20.105469 19.609375 20.140625 19.574219 C 20.1875 19.523438 20.261719 19.507812 20.375 19.523438 C 20.488281 19.539062 20.546875 19.527344 20.5625 19.488281 C 20.582031 19.441406 20.621094 19.4375 20.730469 19.46875 C 21.117188 19.582031 21.1875 19.453125 20.816406 19.316406 C 20.5625 19.222656 20.53125 19.175781 20.765625 19.242188 C 21.066406 19.332031 21.457031 19.265625 21.292969 19.152344 C 21.257812 19.128906 21.136719 19.105469 21.03125 19.101562 C 20.863281 19.097656 20.851562 19.09375 20.960938 19.070312 C 21.03125 19.054688 21.097656 19.011719 21.109375 18.976562 C 21.125 18.925781 21.054688 18.917969 20.683594 18.945312 C 20.242188 18.976562 20.234375 18.976562 20.289062 18.886719 C 20.371094 18.757812 20.316406 18.734375 20.097656 18.808594 C 19.976562 18.851562 19.828125 18.867188 19.707031 18.851562 C 19.453125 18.820312 18.613281 18.535156 18.515625 18.445312 C 18.414062 18.351562 18.417969 18.289062 18.527344 18.324219 C 18.578125 18.339844 18.617188 18.332031 18.617188 18.304688 C 18.617188 18.257812 18.679688 18.269531 18.902344 18.367188 C 18.972656 18.398438 19.132812 18.429688 19.253906 18.429688 C 19.375 18.429688 19.496094 18.433594 19.519531 18.4375 C 19.621094 18.457031 19.632812 18.425781 19.554688 18.335938 C 19.5 18.265625 19.515625 18.273438 19.605469 18.355469 C 19.757812 18.496094 19.800781 18.507812 19.800781 18.410156 C 19.800781 18.351562 19.816406 18.351562 19.914062 18.417969 C 19.980469 18.464844 20.039062 18.476562 20.054688 18.453125 C 20.070312 18.429688 20.144531 18.382812 20.214844 18.351562 C 20.34375 18.292969 20.34375 18.289062 20.261719 18.230469 C 20.164062 18.15625 20.1875 18.148438 20.34375 18.210938 C 20.429688 18.242188 20.457031 18.238281 20.457031 18.195312 C 20.457031 18.160156 20.570312 18.113281 20.742188 18.078125 C 20.902344 18.042969 21.03125 17.996094 21.03125 17.976562 C 21.03125 17.953125 21.046875 17.949219 21.070312 17.964844 C 21.097656 17.980469 21.152344 17.972656 21.191406 17.949219 C 21.257812 17.910156 21.253906 17.898438 21.148438 17.871094 C 21.054688 17.847656 21.03125 17.820312 21.050781 17.757812 C 21.070312 17.699219 21.050781 17.675781 20.976562 17.664062 C 20.90625 17.652344 20.957031 17.621094 21.148438 17.558594 C 21.449219 17.460938 21.523438 17.375 21.261719 17.425781 C 21.015625 17.472656 20.414062 17.484375 20.414062 17.441406 C 20.414062 17.421875 20.433594 17.402344 20.457031 17.402344 C 20.484375 17.402344 20.503906 17.382812 20.503906 17.359375 C 20.503906 17.335938 20.410156 17.316406 20.292969 17.316406 C 20.007812 17.324219 19.546875 17.226562 19.519531 17.152344 C 19.503906 17.109375 19.53125 17.089844 19.605469 17.089844 C 19.664062 17.089844 19.710938 17.070312 19.710938 17.046875 C 19.710938 17.023438 19.742188 17.011719 19.777344 17.027344 C 19.816406 17.042969 19.84375 17.03125 19.84375 17 C 19.84375 16.964844 19.878906 16.972656 19.941406 17.019531 C 19.996094 17.058594 20.089844 17.089844 20.148438 17.085938 L 20.261719 17.085938 L 20.058594 16.914062 L 20.480469 16.882812 L 20.328125 16.808594 L 20.171875 16.734375 L 20.308594 16.730469 C 20.394531 16.730469 20.480469 16.6875 20.546875 16.617188 C 20.601562 16.554688 20.667969 16.507812 20.695312 16.507812 C 20.722656 16.507812 20.769531 16.464844 20.800781 16.414062 C 20.878906 16.285156 20.777344 16.257812 20.527344 16.34375 C 20.253906 16.4375 20.199219 16.4375 20.226562 16.328125 C 20.253906 16.21875 20.246094 16.21875 19.96875 16.308594 C 19.761719 16.378906 19.738281 16.378906 19.402344 16.28125 C 18.953125 16.148438 18.835938 16.027344 19.183594 16.046875 C 19.21875 16.046875 19.261719 16.027344 19.28125 16 C 19.300781 15.964844 19.339844 15.972656 19.398438 16.027344 C 19.46875 16.09375 19.527344 16.105469 19.664062 16.078125 C 19.867188 16.046875 19.878906 16.027344 19.765625 15.933594 C 19.6875 15.867188 19.71875 15.871094 19.90625 15.949219 C 19.972656 15.976562 19.984375 15.96875 19.960938 15.90625 C 19.941406 15.851562 19.957031 15.832031 20.023438 15.832031 C 20.085938 15.832031 20.109375 15.8125 20.09375 15.769531 C 20.078125 15.734375 20.089844 15.695312 20.121094 15.679688 C 20.15625 15.664062 20.152344 15.640625 20.101562 15.597656 C 20.035156 15.542969 20.035156 15.527344 20.132812 15.433594 C 20.292969 15.277344 20.261719 15.246094 20.03125 15.320312 C 19.453125 15.511719 19.242188 15.519531 19.101562 15.367188 C 19.023438 15.28125 19.015625 15.257812 19.070312 15.234375 C 19.105469 15.222656 19.195312 15.234375 19.269531 15.261719 C 19.457031 15.332031 19.496094 15.261719 19.339844 15.132812 C 19.230469 15.042969 19.222656 15.023438 19.296875 15.03125 C 19.449219 15.042969 19.535156 15.027344 19.535156 14.980469 C 19.535156 14.957031 19.503906 14.933594 19.460938 14.933594 C 19.398438 14.929688 19.398438 14.921875 19.476562 14.890625 C 19.527344 14.871094 19.578125 14.820312 19.59375 14.78125 C 19.617188 14.71875 19.609375 14.714844 19.523438 14.765625 C 19.371094 14.851562 18.457031 14.839844 18.265625 14.746094 C 18.128906 14.679688 18.121094 14.671875 18.214844 14.667969 C 18.296875 14.667969 18.3125 14.648438 18.292969 14.570312 C 18.273438 14.488281 18.277344 14.484375 18.34375 14.542969 C 18.441406 14.628906 18.570312 14.675781 18.570312 14.625 C 18.570312 14.601562 18.609375 14.59375 18.660156 14.605469 C 18.707031 14.621094 18.746094 14.609375 18.746094 14.582031 C 18.746094 14.554688 18.796875 14.53125 18.855469 14.53125 C 19.003906 14.53125 18.996094 14.488281 18.828125 14.34375 L 18.683594 14.226562 L 18.917969 14.265625 C 19.160156 14.304688 19.25 14.289062 19.203125 14.210938 C 19.160156 14.136719 19.277344 14.039062 19.410156 14.039062 C 19.558594 14.039062 19.578125 13.964844 19.4375 13.933594 C 19.382812 13.921875 19.40625 13.914062 19.492188 13.914062 C 19.59375 13.917969 19.644531 13.902344 19.636719 13.867188 C 19.628906 13.839844 19.644531 13.8125 19.671875 13.8125 C 19.707031 13.8125 19.703125 13.789062 19.664062 13.742188 C 19.628906 13.699219 19.566406 13.679688 19.496094 13.695312 C 19.433594 13.707031 19.40625 13.710938 19.4375 13.695312 C 19.539062 13.652344 19.496094 13.578125 19.382812 13.609375 C 19.292969 13.628906 19.28125 13.621094 19.304688 13.558594 C 19.324219 13.503906 19.316406 13.496094 19.273438 13.523438 C 19.238281 13.542969 19.164062 13.5625 19.101562 13.566406 C 19.039062 13.574219 18.9375 13.589844 18.878906 13.609375 L 18.769531 13.640625 L 18.890625 13.535156 C 19.027344 13.414062 19.050781 13.339844 18.925781 13.410156 C 18.804688 13.476562 18.714844 13.46875 18.78125 13.398438 C 18.878906 13.300781 18.839844 13.21875 18.738281 13.316406 C 18.6875 13.363281 18.585938 13.433594 18.507812 13.472656 C 18.242188 13.601562 17.519531 13.425781 17.519531 13.230469 C 17.519531 13.191406 17.492188 13.132812 17.464844 13.105469 C 17.429688 13.066406 17.429688 13.050781 17.460938 13.050781 C 17.488281 13.050781 17.519531 13.082031 17.53125 13.117188 C 17.550781 13.160156 17.613281 13.183594 17.703125 13.179688 C 17.78125 13.175781 17.890625 13.191406 17.945312 13.207031 C 18.027344 13.234375 18.042969 13.222656 18.042969 13.144531 L 18.042969 13.054688 L 18.195312 13.144531 C 18.300781 13.207031 18.351562 13.21875 18.375 13.183594 C 18.390625 13.152344 18.378906 13.113281 18.347656 13.089844 C 18.292969 13.054688 18.550781 13.058594 18.726562 13.09375 C 18.75 13.101562 18.8125 13.089844 18.867188 13.070312 C 18.960938 13.042969 18.964844 13.03125 18.898438 12.960938 C 18.835938 12.886719 18.839844 12.878906 18.941406 12.851562 C 19.070312 12.820312 19.09375 12.738281 18.976562 12.734375 C 18.929688 12.734375 18.949219 12.710938 19.03125 12.671875 C 19.105469 12.636719 19.222656 12.558594 19.292969 12.5 L 19.421875 12.390625 L 19.261719 12.359375 C 19.171875 12.34375 19.097656 12.308594 19.097656 12.285156 C 19.097656 12.261719 19.046875 12.253906 18.976562 12.269531 C 18.871094 12.296875 18.863281 12.292969 18.910156 12.234375 C 18.996094 12.128906 18.871094 12.097656 18.738281 12.191406 C 18.679688 12.234375 18.546875 12.265625 18.421875 12.269531 C 18.246094 12.269531 18.222656 12.261719 18.296875 12.226562 C 18.382812 12.1875 18.390625 12.152344 18.355469 11.980469 C 18.351562 11.972656 18.285156 12.007812 18.203125 12.058594 C 18.121094 12.109375 17.988281 12.152344 17.90625 12.152344 C 17.632812 12.152344 17.164062 11.964844 16.863281 11.738281 C 16.75 11.652344 16.773438 11.632812 16.90625 11.707031 C 16.976562 11.742188 16.992188 11.738281 16.992188 11.671875 C 16.992188 11.597656 16.996094 11.59375 17.039062 11.671875 C 17.0625 11.714844 17.101562 11.738281 17.125 11.726562 C 17.144531 11.710938 17.214844 11.734375 17.273438 11.773438 C 17.386719 11.847656 17.386719 11.847656 17.386719 11.71875 C 17.386719 11.648438 17.402344 11.613281 17.417969 11.640625 C 17.457031 11.699219 17.625 11.792969 17.6875 11.792969 C 17.714844 11.792969 17.738281 11.75 17.742188 11.695312 C 17.746094 11.597656 17.746094 11.597656 17.777344 11.703125 C 17.792969 11.765625 17.816406 11.808594 17.828125 11.796875 C 17.835938 11.785156 17.886719 11.800781 17.9375 11.828125 C 18.011719 11.867188 18.039062 11.863281 18.089844 11.792969 C 18.121094 11.746094 18.164062 11.71875 18.1875 11.734375 C 18.207031 11.746094 18.210938 11.703125 18.195312 11.640625 C 18.167969 11.527344 18.171875 11.523438 18.285156 11.570312 C 18.429688 11.625 18.472656 11.597656 18.394531 11.503906 C 18.347656 11.445312 18.355469 11.433594 18.417969 11.433594 C 18.492188 11.433594 18.492188 11.429688 18.421875 11.351562 C 18.378906 11.304688 18.363281 11.253906 18.386719 11.238281 C 18.410156 11.226562 18.460938 11.253906 18.503906 11.300781 C 18.570312 11.375 18.613281 11.382812 18.785156 11.347656 C 18.792969 11.347656 18.78125 11.320312 18.753906 11.285156 C 18.695312 11.214844 18.730469 11.167969 18.835938 11.167969 C 18.878906 11.167969 18.957031 11.125 19.015625 11.078125 L 19.121094 10.988281 L 18.988281 10.980469 C 18.914062 10.976562 18.808594 10.976562 18.75 10.984375 C 18.65625 10.992188 18.648438 10.984375 18.699219 10.921875 C 18.796875 10.800781 18.730469 10.804688 18.558594 10.921875 C 18.375 11.046875 18.265625 11.070312 18.351562 10.960938 C 18.398438 10.90625 18.394531 10.898438 18.335938 10.921875 C 18.25 10.953125 18.238281 10.894531 18.316406 10.816406 C 18.425781 10.703125 18.308594 10.71875 18.167969 10.839844 C 17.898438 11.070312 17.863281 11.078125 17.554688 10.984375 C 17.230469 10.882812 17.015625 10.757812 16.949219 10.632812 C 16.910156 10.558594 16.917969 10.546875 17.015625 10.554688 C 17.074219 10.558594 17.132812 10.589844 17.144531 10.628906 C 17.15625 10.667969 17.207031 10.699219 17.257812 10.703125 C 17.332031 10.710938 17.347656 10.691406 17.324219 10.613281 C 17.304688 10.527344 17.3125 10.53125 17.402344 10.640625 C 17.460938 10.707031 17.550781 10.761719 17.605469 10.761719 C 17.691406 10.761719 17.699219 10.746094 17.679688 10.632812 C 17.644531 10.460938 17.75 10.414062 17.855469 10.550781 C 17.929688 10.644531 18.175781 10.710938 18.175781 10.636719 C 18.175781 10.621094 18.113281 10.550781 18.035156 10.484375 C 17.925781 10.390625 17.910156 10.359375 17.96875 10.359375 C 18.011719 10.359375 18.058594 10.386719 18.070312 10.425781 C 18.085938 10.460938 18.113281 10.480469 18.132812 10.46875 C 18.152344 10.457031 18.183594 10.464844 18.195312 10.492188 C 18.210938 10.515625 18.277344 10.539062 18.339844 10.539062 C 18.453125 10.539062 18.453125 10.535156 18.371094 10.472656 C 18.289062 10.410156 18.289062 10.40625 18.410156 10.359375 C 18.476562 10.335938 18.554688 10.3125 18.585938 10.3125 C 18.613281 10.3125 18.585938 10.28125 18.527344 10.246094 C 18.421875 10.1875 18.421875 10.1875 18.585938 10.203125 C 18.695312 10.210938 18.78125 10.195312 18.820312 10.152344 C 18.917969 10.054688 18.847656 10 18.632812 10 C 18.511719 10 18.445312 9.980469 18.460938 9.953125 C 18.515625 9.863281 18.355469 9.859375 18.171875 9.949219 C 17.949219 10.0625 17.90625 10.066406 17.941406 9.976562 C 17.957031 9.933594 17.941406 9.910156 17.898438 9.910156 C 17.851562 9.910156 17.835938 9.882812 17.851562 9.84375 C 17.882812 9.765625 17.867188 9.761719 17.722656 9.816406 C 17.628906 9.855469 17.617188 9.847656 17.636719 9.773438 C 17.660156 9.683594 17.585938 9.652344 17.539062 9.730469 C 17.523438 9.753906 17.429688 9.820312 17.332031 9.871094 C 17.171875 9.953125 17.132812 9.957031 16.976562 9.910156 C 16.828125 9.863281 16.808594 9.847656 16.871094 9.8125 C 16.914062 9.789062 16.949219 9.738281 16.949219 9.703125 C 16.949219 9.648438 16.902344 9.636719 16.75 9.644531 C 16.597656 9.65625 16.53125 9.636719 16.464844 9.570312 C 16.371094 9.472656 16.277344 9.113281 16.335938 9.078125 C 16.375 9.054688 16.394531 9.148438 16.378906 9.273438 C 16.375 9.304688 16.414062 9.390625 16.464844 9.464844 C 16.542969 9.570312 16.574219 9.589844 16.621094 9.546875 C 16.65625 9.519531 16.683594 9.441406 16.6875 9.375 C 16.691406 9.285156 16.699219 9.277344 16.714844 9.347656 C 16.75 9.488281 16.863281 9.59375 16.976562 9.59375 C 17.066406 9.59375 17.074219 9.582031 17.035156 9.507812 C 16.980469 9.398438 16.980469 9.359375 17.035156 9.394531 C 17.058594 9.410156 17.078125 9.398438 17.078125 9.375 C 17.078125 9.347656 17.097656 9.328125 17.121094 9.328125 C 17.148438 9.328125 17.167969 9.355469 17.167969 9.390625 C 17.167969 9.46875 17.421875 9.695312 17.476562 9.660156 C 17.5 9.644531 17.519531 9.597656 17.519531 9.546875 C 17.519531 9.5 17.539062 9.460938 17.5625 9.460938 C 17.589844 9.460938 17.597656 9.4375 17.582031 9.40625 C 17.566406 9.375 17.589844 9.394531 17.636719 9.453125 C 17.679688 9.507812 17.734375 9.539062 17.75 9.519531 C 17.769531 9.503906 17.828125 9.480469 17.878906 9.472656 C 18 9.457031 18.175781 9.367188 18.175781 9.324219 C 18.175781 9.304688 18.117188 9.265625 18.046875 9.238281 C 17.972656 9.207031 17.921875 9.160156 17.925781 9.128906 C 17.929688 9.101562 17.875 9.078125 17.800781 9.074219 C 17.648438 9.070312 17.421875 8.960938 17.507812 8.933594 C 17.535156 8.921875 17.5625 8.886719 17.5625 8.851562 C 17.5625 8.78125 17.34375 8.761719 17.273438 8.828125 C 17.207031 8.890625 17.035156 8.933594 17.035156 8.882812 C 17.035156 8.859375 17.085938 8.828125 17.148438 8.8125 C 17.242188 8.789062 17.25 8.773438 17.207031 8.71875 C 17.164062 8.664062 17.171875 8.652344 17.238281 8.652344 C 17.335938 8.648438 17.5 8.53125 17.460938 8.492188 C 17.445312 8.476562 17.34375 8.453125 17.234375 8.441406 C 17.015625 8.414062 17.015625 8.414062 17.082031 8.292969 C 17.121094 8.210938 17.132812 8.210938 17.230469 8.273438 C 17.328125 8.339844 17.335938 8.339844 17.363281 8.25 C 17.378906 8.199219 17.410156 8.167969 17.433594 8.183594 C 17.457031 8.199219 17.472656 8.1875 17.472656 8.164062 C 17.472656 8.136719 17.511719 8.113281 17.5625 8.113281 C 17.609375 8.113281 17.648438 8.085938 17.648438 8.050781 C 17.648438 7.984375 17.558594 7.933594 17.425781 7.933594 C 17.328125 7.933594 17.3125 7.851562 17.40625 7.816406 C 17.441406 7.800781 17.464844 7.777344 17.453125 7.757812 C 17.441406 7.738281 17.480469 7.699219 17.542969 7.664062 C 17.6875 7.582031 17.652344 7.507812 17.464844 7.507812 L 17.308594 7.507812 L 17.421875 7.359375 C 17.507812 7.246094 17.519531 7.199219 17.476562 7.160156 C 17.433594 7.117188 17.390625 7.140625 17.277344 7.265625 C 17.144531 7.414062 17.132812 7.421875 17.085938 7.34375 C 17.058594 7.296875 17.015625 7.261719 16.992188 7.261719 C 16.9375 7.261719 16.800781 7.511719 16.769531 7.664062 C 16.75 7.773438 16.34375 8.128906 16.285156 8.089844 C 16.265625 8.078125 16.257812 7.957031 16.261719 7.824219 C 16.269531 7.6875 16.253906 7.578125 16.234375 7.578125 C 16.214844 7.578125 16.203125 7.5 16.210938 7.410156 C 16.222656 7.273438 16.242188 7.238281 16.34375 7.210938 C 16.453125 7.183594 16.464844 7.1875 16.441406 7.261719 C 16.402344 7.390625 16.507812 7.421875 16.59375 7.308594 C 16.640625 7.246094 16.683594 7.222656 16.699219 7.25 C 16.730469 7.300781 16.902344 7.273438 16.902344 7.21875 C 16.902344 7.179688 16.683594 6.96875 16.648438 6.976562 C 16.628906 6.976562 16.582031 6.96875 16.542969 6.957031 C 16.417969 6.925781 16.5 6.863281 16.628906 6.890625 C 16.847656 6.933594 17.046875 6.925781 17.066406 6.871094 C 17.078125 6.839844 17.058594 6.8125 17.019531 6.8125 C 16.984375 6.8125 16.933594 6.78125 16.902344 6.746094 C 16.875 6.710938 16.832031 6.691406 16.808594 6.703125 C 16.789062 6.71875 16.773438 6.714844 16.773438 6.691406 C 16.773438 6.671875 16.832031 6.617188 16.902344 6.566406 C 17.035156 6.476562 17.074219 6.410156 16.988281 6.410156 C 16.910156 6.410156 16.621094 6.546875 16.582031 6.601562 C 16.5625 6.636719 16.554688 6.617188 16.574219 6.558594 C 16.585938 6.503906 16.582031 6.449219 16.558594 6.433594 C 16.511719 6.40625 16.332031 6.695312 16.332031 6.800781 C 16.332031 6.839844 16.320312 6.859375 16.304688 6.84375 C 16.289062 6.828125 16.246094 6.847656 16.214844 6.890625 C 16.164062 6.960938 16.160156 6.941406 16.179688 6.75 C 16.195312 6.574219 16.238281 6.484375 16.398438 6.292969 C 16.507812 6.164062 16.597656 6.027344 16.597656 5.992188 C 16.597656 5.886719 16.375 5.957031 16.332031 6.078125 C 16.257812 6.273438 16.179688 6.207031 16.195312 5.964844 C 16.207031 5.785156 16.191406 5.71875 16.117188 5.640625 Z M 15.726562 7.113281 C 15.746094 7.117188 15.796875 7.15625 15.851562 7.21875 C 15.941406 7.320312 15.980469 7.414062 15.980469 7.515625 C 15.980469 7.597656 15.972656 7.667969 15.964844 7.667969 C 15.941406 7.667969 15.882812 7.527344 15.863281 7.421875 C 15.855469 7.371094 15.820312 7.300781 15.78125 7.261719 C 15.746094 7.21875 15.71875 7.160156 15.71875 7.125 C 15.71875 7.117188 15.722656 7.113281 15.726562 7.113281 Z M 15.621094 7.773438 C 15.703125 7.78125 15.90625 7.921875 15.9375 8.007812 C 15.996094 8.164062 15.964844 8.191406 15.863281 8.074219 C 15.820312 8.023438 15.761719 7.980469 15.730469 7.980469 C 15.679688 7.980469 15.5625 7.808594 15.59375 7.78125 C 15.601562 7.773438 15.609375 7.773438 15.621094 7.773438 Z M 16.820312 8.140625 C 16.832031 8.140625 16.84375 8.140625 16.855469 8.144531 C 16.929688 8.164062 16.914062 8.191406 16.742188 8.324219 C 16.632812 8.410156 16.503906 8.484375 16.460938 8.488281 C 16.414062 8.488281 16.375 8.507812 16.375 8.527344 C 16.375 8.546875 16.355469 8.5625 16.328125 8.5625 C 16.304688 8.5625 16.289062 8.519531 16.296875 8.460938 C 16.308594 8.375 16.332031 8.363281 16.476562 8.375 C 16.601562 8.386719 16.640625 8.375 16.640625 8.320312 C 16.640625 8.28125 16.667969 8.25 16.707031 8.25 C 16.742188 8.25 16.773438 8.222656 16.773438 8.1875 C 16.773438 8.15625 16.789062 8.140625 16.820312 8.140625 Z M 16.3125 8.78125 L 16.414062 8.835938 C 16.46875 8.863281 16.5625 8.871094 16.621094 8.859375 C 16.683594 8.84375 16.726562 8.851562 16.726562 8.875 C 16.726562 8.902344 16.707031 8.921875 16.6875 8.921875 C 16.664062 8.921875 16.617188 8.933594 16.582031 8.945312 C 16.550781 8.960938 16.476562 8.929688 16.417969 8.875 Z M 16.792969 8.894531 C 16.800781 8.894531 16.816406 8.90625 16.835938 8.921875 C 16.886719 8.964844 16.902344 8.964844 16.902344 8.925781 C 16.902344 8.894531 16.925781 8.886719 16.953125 8.90625 C 16.988281 8.925781 16.980469 8.953125 16.921875 8.996094 C 16.808594 9.082031 16.773438 9.070312 16.773438 8.960938 C 16.773438 8.910156 16.777344 8.890625 16.792969 8.894531 Z M 17.453125 9.058594 C 17.492188 9.058594 17.511719 9.078125 17.496094 9.101562 C 17.460938 9.160156 17.386719 9.160156 17.386719 9.101562 C 17.386719 9.078125 17.414062 9.058594 17.453125 9.058594 Z M 16.421875 9.773438 C 16.445312 9.773438 16.464844 9.875 16.464844 10 C 16.464844 10.226562 16.457031 10.246094 16.40625 10.191406 C 16.359375 10.144531 16.371094 9.773438 16.421875 9.773438 Z M 16.085938 10.375 C 16.101562 10.371094 16.113281 10.382812 16.113281 10.402344 C 16.113281 10.425781 16.09375 10.449219 16.070312 10.449219 C 16.011719 10.449219 16.011719 10.417969 16.070312 10.382812 C 16.074219 10.378906 16.082031 10.375 16.085938 10.375 Z M 16.441406 10.46875 C 16.441406 10.46875 16.445312 10.472656 16.449219 10.480469 C 16.460938 10.511719 16.460938 10.570312 16.449219 10.613281 C 16.441406 10.660156 16.429688 10.632812 16.429688 10.558594 C 16.429688 10.503906 16.433594 10.46875 16.441406 10.46875 Z M 15.894531 10.492188 C 15.917969 10.492188 15.9375 10.5 15.9375 10.511719 C 15.9375 10.523438 15.917969 10.546875 15.894531 10.558594 C 15.871094 10.574219 15.851562 10.566406 15.851562 10.539062 C 15.851562 10.515625 15.871094 10.492188 15.894531 10.492188 Z M 15.675781 10.582031 C 15.699219 10.582031 15.71875 10.589844 15.71875 10.601562 C 15.71875 10.613281 15.699219 10.636719 15.675781 10.648438 C 15.648438 10.664062 15.628906 10.65625 15.628906 10.628906 C 15.628906 10.605469 15.648438 10.582031 15.675781 10.582031 Z M 14.761719 10.585938 C 14.789062 10.585938 14.828125 10.609375 14.855469 10.644531 C 14.945312 10.757812 15.09375 10.773438 15.175781 10.675781 C 15.246094 10.589844 15.351562 10.589844 15.296875 10.675781 C 15.285156 10.699219 15.304688 10.71875 15.339844 10.71875 C 15.375 10.71875 15.417969 10.695312 15.433594 10.671875 C 15.46875 10.613281 15.542969 10.613281 15.542969 10.671875 C 15.542969 10.699219 15.488281 10.742188 15.421875 10.765625 C 15.355469 10.792969 15.1875 10.824219 15.050781 10.835938 C 14.832031 10.855469 14.796875 10.847656 14.753906 10.769531 C 14.730469 10.71875 14.707031 10.65625 14.707031 10.628906 C 14.707031 10.597656 14.730469 10.582031 14.761719 10.585938 Z M 18.789062 12.960938 C 18.8125 12.960938 18.835938 12.980469 18.835938 13.007812 C 18.835938 13.0625 18.804688 13.0625 18.769531 13.007812 C 18.753906 12.980469 18.761719 12.960938 18.789062 12.960938 Z M 15.117188 13.5 C 15.144531 13.5 15.09375 13.539062 15.003906 13.589844 C 14.84375 13.675781 14.753906 13.699219 14.753906 13.65625 C 14.753906 13.628906 15.054688 13.5 15.117188 13.5 Z M 18.910156 15.417969 C 18.957031 15.417969 19.003906 15.421875 19.035156 15.433594 C 19.09375 15.457031 19.066406 15.46875 18.933594 15.46875 C 18.832031 15.472656 18.746094 15.464844 18.746094 15.457031 C 18.746094 15.433594 18.828125 15.417969 18.910156 15.417969 Z M 19.890625 15.660156 C 19.90625 15.660156 19.925781 15.660156 19.941406 15.667969 C 19.976562 15.683594 19.964844 15.691406 19.914062 15.695312 C 19.867188 15.695312 19.839844 15.683594 19.855469 15.671875 C 19.863281 15.664062 19.875 15.660156 19.890625 15.660156 Z M 19.902344 16.777344 C 19.902344 16.777344 19.90625 16.777344 19.910156 16.777344 C 19.933594 16.777344 19.984375 16.796875 20.019531 16.820312 C 20.054688 16.84375 20.066406 16.863281 20.042969 16.863281 C 20.019531 16.863281 19.96875 16.84375 19.933594 16.820312 C 19.898438 16.800781 19.886719 16.78125 19.902344 16.777344 Z M 12.257812 18.589844 C 12.277344 18.585938 12.28125 18.597656 12.269531 18.613281 C 12.257812 18.640625 12.226562 18.660156 12.203125 18.660156 C 12.140625 18.660156 12.152344 18.625 12.230469 18.597656 C 12.238281 18.59375 12.25 18.589844 12.257812 18.589844 Z M 12.964844 18.976562 L 13.066406 19.085938 L 13.164062 19.195312 L 13.238281 19.078125 C 13.308594 18.96875 13.316406 18.96875 13.359375 19.039062 C 13.390625 19.097656 13.410156 19.105469 13.4375 19.0625 C 13.460938 19.023438 13.476562 19.035156 13.5 19.101562 C 13.527344 19.199219 13.613281 19.238281 13.613281 19.152344 C 13.613281 19.128906 13.664062 19.109375 13.730469 19.109375 L 13.851562 19.109375 L 13.722656 19.179688 C 13.636719 19.226562 13.523438 19.242188 13.402344 19.230469 C 13.300781 19.21875 13.226562 19.226562 13.242188 19.25 C 13.277344 19.304688 13.210938 19.296875 13.074219 19.222656 C 13.007812 19.1875 12.953125 19.179688 12.945312 19.203125 C 12.9375 19.226562 12.894531 19.234375 12.851562 19.214844 C 12.777344 19.1875 12.777344 19.179688 12.871094 19.082031 Z M 13.984375 19.023438 C 13.996094 19.023438 14.003906 19.023438 14.011719 19.027344 C 14.042969 19.039062 14.023438 19.058594 13.964844 19.074219 C 13.890625 19.09375 13.875 19.089844 13.90625 19.054688 C 13.925781 19.035156 13.957031 19.023438 13.984375 19.023438 Z M 13.539062 20.875 C 13.554688 20.871094 13.566406 20.882812 13.566406 20.902344 C 13.566406 20.925781 13.546875 20.949219 13.523438 20.949219 C 13.46875 20.949219 13.46875 20.917969 13.523438 20.882812 C 13.53125 20.878906 13.535156 20.875 13.539062 20.875 Z M 13.539062 20.875 " fill-opacity="1" fill-rule="nonzero"/></g><g fill="#000000" fill-opacity="1"><g transform="translate(23.060594, 19.233873)"><g><path d="M 0.78125 -0.234375 L 1.703125 -0.46875 L 1.703125 -10.375 L 0.78125 -10.609375 L 0.78125 -10.84375 L 5.109375 -10.84375 C 6.828125 -10.84375 8.054688 -10.5625 8.796875 -10 C 9.535156 -9.4375 9.90625 -8.609375 9.90625 -7.515625 C 9.90625 -6.421875 9.535156 -5.59375 8.796875 -5.03125 C 8.054688 -4.46875 6.828125 -4.1875 5.109375 -4.1875 L 4.265625 -4.1875 L 4.265625 -0.46875 L 5.1875 -0.234375 L 5.1875 0 L 0.78125 0 Z M 5.109375 -4.5625 C 5.753906 -4.5625 6.273438 -4.804688 6.671875 -5.296875 C 7.078125 -5.796875 7.28125 -6.535156 7.28125 -7.515625 C 7.28125 -8.472656 7.078125 -9.203125 6.671875 -9.703125 C 6.273438 -10.203125 5.753906 -10.453125 5.109375 -10.453125 L 4.265625 -10.453125 L 4.265625 -4.5625 Z M 5.109375 -4.5625 "/></g></g></g><g fill="#000000" fill-opacity="1"><g transform="translate(33.5097, 19.233873)"><g><path d="M 0.625 -0.234375 L 1.546875 -0.46875 L 1.546875 -7.28125 L 0.625 -7.515625 L 0.625 -7.734375 L 2.625 -7.734375 C 3.5625 -7.734375 4.03125 -7.269531 4.03125 -6.34375 L 4.03125 -0.46875 L 4.953125 -0.234375 L 4.953125 0 L 0.625 0 Z M 2.640625 -8.671875 C 2.328125 -8.671875 2.066406 -8.773438 1.859375 -8.984375 C 1.648438 -9.191406 1.546875 -9.445312 1.546875 -9.75 C 1.546875 -10.0625 1.648438 -10.320312 1.859375 -10.53125 C 2.066406 -10.738281 2.328125 -10.84375 2.640625 -10.84375 C 2.953125 -10.84375 3.207031 -10.738281 3.40625 -10.53125 C 3.613281 -10.320312 3.71875 -10.0625 3.71875 -9.75 C 3.71875 -9.445312 3.613281 -9.191406 3.40625 -8.984375 C 3.207031 -8.773438 2.953125 -8.671875 2.640625 -8.671875 Z M 2.640625 -8.671875 "/></g></g></g><g fill="#000000" fill-opacity="1"><g transform="translate(38.772948, 19.233873)"><g><path d="M 0.625 -0.234375 L 1.546875 -0.46875 L 1.546875 -7.28125 L 0.625 -7.515625 L 0.625 -7.734375 L 2.015625 -7.734375 C 2.617188 -7.734375 3.097656 -7.539062 3.453125 -7.15625 C 3.585938 -7 3.703125 -6.804688 3.796875 -6.578125 C 3.941406 -6.847656 4.109375 -7.082031 4.296875 -7.28125 C 4.765625 -7.738281 5.34375 -7.96875 6.03125 -7.96875 C 6.613281 -7.96875 7.132812 -7.847656 7.59375 -7.609375 C 8.050781 -7.367188 8.410156 -7.050781 8.671875 -6.65625 C 8.929688 -6.257812 9.0625 -5.847656 9.0625 -5.421875 L 9.0625 -0.46875 L 9.984375 -0.234375 L 9.984375 0 L 7.96875 0 C 7.039062 0 6.578125 -0.460938 6.578125 -1.390625 L 6.578125 -5.421875 C 6.578125 -6.066406 6.460938 -6.5625 6.234375 -6.90625 C 6.003906 -7.257812 5.734375 -7.4375 5.421875 -7.4375 C 5.023438 -7.4375 4.671875 -7.226562 4.359375 -6.8125 C 4.234375 -6.632812 4.125 -6.425781 4.03125 -6.1875 L 4.03125 -0.46875 L 4.953125 -0.234375 L 4.953125 0 L 0.625 0 Z M 0.625 -0.234375 "/></g></g></g><g fill="#000000" fill-opacity="1"><g transform="translate(49.067248, 19.233873)"><g><path d="M 4.796875 0.234375 C 3.472656 0.234375 2.445312 -0.128906 1.71875 -0.859375 C 0.988281 -1.585938 0.625 -2.59375 0.625 -3.875 C 0.625 -4.707031 0.78125 -5.429688 1.09375 -6.046875 C 1.414062 -6.671875 1.863281 -7.144531 2.4375 -7.46875 C 3.007812 -7.800781 3.664062 -7.96875 4.40625 -7.96875 C 5.15625 -7.96875 5.8125 -7.828125 6.375 -7.546875 C 6.9375 -7.273438 7.367188 -6.90625 7.671875 -6.4375 C 7.972656 -5.96875 8.125 -5.445312 8.125 -4.875 C 8.125 -4.613281 8.097656 -4.394531 8.046875 -4.21875 L 7.96875 -3.953125 C 7.53125 -3.859375 7.050781 -3.78125 6.53125 -3.71875 C 5.445312 -3.5625 4.351562 -3.484375 3.25 -3.484375 C 3.25 -2.285156 3.414062 -1.429688 3.75 -0.921875 C 4.082031 -0.410156 4.535156 -0.15625 5.109375 -0.15625 C 5.515625 -0.15625 5.890625 -0.25 6.234375 -0.4375 C 6.578125 -0.632812 6.847656 -0.890625 7.046875 -1.203125 C 7.253906 -1.515625 7.359375 -1.835938 7.359375 -2.171875 L 7.734375 -2.171875 C 7.734375 -1.753906 7.609375 -1.359375 7.359375 -0.984375 C 7.117188 -0.617188 6.773438 -0.320312 6.328125 -0.09375 C 5.890625 0.125 5.378906 0.234375 4.796875 0.234375 Z M 3.25 -3.875 C 3.914062 -3.875 4.453125 -3.898438 4.859375 -3.953125 C 5.035156 -3.960938 5.222656 -3.988281 5.421875 -4.03125 C 5.429688 -4.082031 5.457031 -4.191406 5.5 -4.359375 C 5.550781 -4.617188 5.578125 -4.894531 5.578125 -5.1875 C 5.578125 -6.039062 5.460938 -6.664062 5.234375 -7.0625 C 5.003906 -7.46875 4.726562 -7.671875 4.40625 -7.671875 C 3.632812 -7.671875 3.25 -6.40625 3.25 -3.875 Z M 3.25 -3.875 "/></g></g></g><g fill="#000000" fill-opacity="1"><g transform="translate(57.736137, 19.233873)"><g><path d="M 4.640625 0.234375 C 3.960938 0.234375 3.375 0.109375 2.875 -0.140625 C 2.375 -0.390625 1.988281 -0.726562 1.71875 -1.15625 C 1.445312 -1.59375 1.3125 -2.082031 1.3125 -2.625 L 1.3125 -7.359375 L 0.234375 -7.359375 L 0.234375 -7.734375 L 1.3125 -7.734375 L 1.3125 -8.515625 C 1.3125 -9.441406 1.773438 -9.90625 2.703125 -9.90625 L 3.796875 -9.90625 L 3.796875 -7.734375 L 5.96875 -7.734375 L 5.96875 -7.359375 L 3.796875 -7.359375 L 3.796875 -2.625 C 3.796875 -1.675781 3.890625 -1.023438 4.078125 -0.671875 C 4.273438 -0.328125 4.566406 -0.15625 4.953125 -0.15625 C 5.328125 -0.15625 5.648438 -0.332031 5.921875 -0.6875 C 6.203125 -1.050781 6.34375 -1.546875 6.34375 -2.171875 L 6.734375 -2.171875 C 6.734375 -1.398438 6.539062 -0.804688 6.15625 -0.390625 C 5.78125 0.0234375 5.273438 0.234375 4.640625 0.234375 Z M 4.640625 0.234375 "/></g></g></g><g fill="#000000" fill-opacity="1"><g transform="translate(64.702211, 19.233873)"><g><path d="M 4.796875 0.234375 C 3.472656 0.234375 2.445312 -0.128906 1.71875 -0.859375 C 0.988281 -1.585938 0.625 -2.59375 0.625 -3.875 C 0.625 -4.707031 0.78125 -5.429688 1.09375 -6.046875 C 1.414062 -6.671875 1.863281 -7.144531 2.4375 -7.46875 C 3.007812 -7.800781 3.664062 -7.96875 4.40625 -7.96875 C 5.15625 -7.96875 5.8125 -7.828125 6.375 -7.546875 C 6.9375 -7.273438 7.367188 -6.90625 7.671875 -6.4375 C 7.972656 -5.96875 8.125 -5.445312 8.125 -4.875 C 8.125 -4.613281 8.097656 -4.394531 8.046875 -4.21875 L 7.96875 -3.953125 C 7.53125 -3.859375 7.050781 -3.78125 6.53125 -3.71875 C 5.445312 -3.5625 4.351562 -3.484375 3.25 -3.484375 C 3.25 -2.285156 3.414062 -1.429688 3.75 -0.921875 C 4.082031 -0.410156 4.535156 -0.15625 5.109375 -0.15625 C 5.515625 -0.15625 5.890625 -0.25 6.234375 -0.4375 C 6.578125 -0.632812 6.847656 -0.890625 7.046875 -1.203125 C 7.253906 -1.515625 7.359375 -1.835938 7.359375 -2.171875 L 7.734375 -2.171875 C 7.734375 -1.753906 7.609375 -1.359375 7.359375 -0.984375 C 7.117188 -0.617188 6.773438 -0.320312 6.328125 -0.09375 C 5.890625 0.125 5.378906 0.234375 4.796875 0.234375 Z M 3.25 -3.875 C 3.914062 -3.875 4.453125 -3.898438 4.859375 -3.953125 C 5.035156 -3.960938 5.222656 -3.988281 5.421875 -4.03125 C 5.429688 -4.082031 5.457031 -4.191406 5.5 -4.359375 C 5.550781 -4.617188 5.578125 -4.894531 5.578125 -5.1875 C 5.578125 -6.039062 5.460938 -6.664062 5.234375 -7.0625 C 5.003906 -7.46875 4.726562 -7.671875 4.40625 -7.671875 C 3.632812 -7.671875 3.25 -6.40625 3.25 -3.875 Z M 3.25 -3.875 "/></g></g></g><g fill="#000000" fill-opacity="1"><g transform="translate(73.371099, 19.233873)"><g><path d="M 0.625 -0.234375 L 1.546875 -0.46875 L 1.546875 -7.28125 L 0.625 -7.515625 L 0.625 -7.734375 L 2.015625 -7.734375 C 2.617188 -7.734375 3.097656 -7.539062 3.453125 -7.15625 C 3.585938 -7 3.703125 -6.804688 3.796875 -6.578125 C 3.953125 -6.804688 4.140625 -7.015625 4.359375 -7.203125 C 4.878906 -7.609375 5.457031 -7.8125 6.09375 -7.8125 C 6.644531 -7.8125 7.054688 -7.6875 7.328125 -7.4375 C 7.597656 -7.1875 7.734375 -6.820312 7.734375 -6.34375 C 7.734375 -6 7.628906 -5.71875 7.421875 -5.5 C 7.210938 -5.289062 6.929688 -5.1875 6.578125 -5.1875 C 6.429688 -5.1875 6.285156 -5.195312 6.140625 -5.21875 L 5.96875 -5.265625 L 5.96875 -7.4375 C 5.4375 -7.4375 4.953125 -7.226562 4.515625 -6.8125 C 4.316406 -6.601562 4.15625 -6.394531 4.03125 -6.1875 L 4.03125 -0.46875 L 4.953125 -0.234375 L 4.953125 0 L 0.625 0 Z M 0.625 -0.234375 "/></g></g></g><g fill="#000000" fill-opacity="1"><g transform="translate(81.18858, 19.233873)"><g><path d="M 4.796875 0.234375 C 3.472656 0.234375 2.445312 -0.128906 1.71875 -0.859375 C 0.988281 -1.585938 0.625 -2.59375 0.625 -3.875 C 0.625 -4.707031 0.78125 -5.429688 1.09375 -6.046875 C 1.414062 -6.671875 1.863281 -7.144531 2.4375 -7.46875 C 3.007812 -7.800781 3.664062 -7.96875 4.40625 -7.96875 C 5.15625 -7.96875 5.8125 -7.828125 6.375 -7.546875 C 6.9375 -7.273438 7.367188 -6.90625 7.671875 -6.4375 C 7.972656 -5.96875 8.125 -5.445312 8.125 -4.875 C 8.125 -4.613281 8.097656 -4.394531 8.046875 -4.21875 L 7.96875 -3.953125 C 7.53125 -3.859375 7.050781 -3.78125 6.53125 -3.71875 C 5.445312 -3.5625 4.351562 -3.484375 3.25 -3.484375 C 3.25 -2.285156 3.414062 -1.429688 3.75 -0.921875 C 4.082031 -0.410156 4.535156 -0.15625 5.109375 -0.15625 C 5.515625 -0.15625 5.890625 -0.25 6.234375 -0.4375 C 6.578125 -0.632812 6.847656 -0.890625 7.046875 -1.203125 C 7.253906 -1.515625 7.359375 -1.835938 7.359375 -2.171875 L 7.734375 -2.171875 C 7.734375 -1.753906 7.609375 -1.359375 7.359375 -0.984375 C 7.117188 -0.617188 6.773438 -0.320312 6.328125 -0.09375 C 5.890625 0.125 5.378906 0.234375 4.796875 0.234375 Z M 3.25 -3.875 C 3.914062 -3.875 4.453125 -3.898438 4.859375 -3.953125 C 5.035156 -3.960938 5.222656 -3.988281 5.421875 -4.03125 C 5.429688 -4.082031 5.457031 -4.191406 5.5 -4.359375 C 5.550781 -4.617188 5.578125 -4.894531 5.578125 -5.1875 C 5.578125 -6.039062 5.460938 -6.664062 5.234375 -7.0625 C 5.003906 -7.46875 4.726562 -7.671875 4.40625 -7.671875 C 3.632812 -7.671875 3.25 -6.40625 3.25 -3.875 Z M 3.25 -3.875 "/></g></g></g><g fill="#000000" fill-opacity="1"><g transform="translate(89.857469, 19.233873)"><g><path d="M 4.265625 0.234375 C 3.617188 0.234375 3.046875 0.09375 2.546875 -0.1875 C 2.296875 -0.320312 2.09375 -0.46875 1.9375 -0.625 C 1.769531 -0.394531 1.585938 -0.21875 1.390625 -0.09375 C 1.296875 -0.03125 1.191406 0.0234375 1.078125 0.078125 L 0.703125 0.078125 L 0.703125 -2.5625 L 1.3125 -2.5625 C 1.445312 -2.125 1.644531 -1.71875 1.90625 -1.34375 C 2.445312 -0.550781 3.128906 -0.15625 3.953125 -0.15625 C 4.378906 -0.15625 4.703125 -0.257812 4.921875 -0.46875 C 5.148438 -0.6875 5.265625 -0.992188 5.265625 -1.390625 C 5.265625 -1.734375 5.109375 -2.019531 4.796875 -2.25 C 4.492188 -2.476562 4.019531 -2.765625 3.375 -3.109375 C 2.820312 -3.390625 2.367188 -3.640625 2.015625 -3.859375 C 1.671875 -4.085938 1.378906 -4.367188 1.140625 -4.703125 C 0.898438 -5.035156 0.78125 -5.429688 0.78125 -5.890625 C 0.78125 -6.503906 1.046875 -7.003906 1.578125 -7.390625 C 2.109375 -7.773438 2.925781 -7.96875 4.03125 -7.96875 C 4.570312 -7.96875 5.078125 -7.828125 5.546875 -7.546875 C 5.773438 -7.410156 5.96875 -7.269531 6.125 -7.125 C 6.257812 -7.3125 6.441406 -7.488281 6.671875 -7.65625 C 6.847656 -7.75 6.953125 -7.800781 6.984375 -7.8125 L 7.375 -7.8125 L 7.375 -5.1875 L 6.75 -5.1875 C 6.59375 -5.632812 6.398438 -6.03125 6.171875 -6.375 C 5.660156 -7.1875 5.046875 -7.59375 4.328125 -7.59375 C 4.054688 -7.59375 3.820312 -7.488281 3.625 -7.28125 C 3.425781 -7.070312 3.328125 -6.8125 3.328125 -6.5 C 3.328125 -6.113281 3.488281 -5.785156 3.8125 -5.515625 C 4.144531 -5.253906 4.648438 -4.953125 5.328125 -4.609375 C 5.867188 -4.335938 6.300781 -4.09375 6.625 -3.875 C 6.957031 -3.664062 7.238281 -3.40625 7.46875 -3.09375 C 7.695312 -2.78125 7.8125 -2.421875 7.8125 -2.015625 C 7.8125 -0.515625 6.628906 0.234375 4.265625 0.234375 Z M 4.265625 0.234375 "/></g></g></g><g fill="#000000" fill-opacity="1"><g transform="translate(98.216746, 19.233873)"><g><path d="M 4.640625 0.234375 C 3.960938 0.234375 3.375 0.109375 2.875 -0.140625 C 2.375 -0.390625 1.988281 -0.726562 1.71875 -1.15625 C 1.445312 -1.59375 1.3125 -2.082031 1.3125 -2.625 L 1.3125 -7.359375 L 0.234375 -7.359375 L 0.234375 -7.734375 L 1.3125 -7.734375 L 1.3125 -8.515625 C 1.3125 -9.441406 1.773438 -9.90625 2.703125 -9.90625 L 3.796875 -9.90625 L 3.796875 -7.734375 L 5.96875 -7.734375 L 5.96875 -7.359375 L 3.796875 -7.359375 L 3.796875 -2.625 C 3.796875 -1.675781 3.890625 -1.023438 4.078125 -0.671875 C 4.273438 -0.328125 4.566406 -0.15625 4.953125 -0.15625 C 5.328125 -0.15625 5.648438 -0.332031 5.921875 -0.6875 C 6.203125 -1.050781 6.34375 -1.546875 6.34375 -2.171875 L 6.734375 -2.171875 C 6.734375 -1.398438 6.539062 -0.804688 6.15625 -0.390625 C 5.78125 0.0234375 5.273438 0.234375 4.640625 0.234375 Z M 4.640625 0.234375 "/></g></g></g></svg>